<?xml version="1.0" encoding="utf-8"?>
<!-- Generator: Adobe Illustrator 26.5.0, SVG Export Plug-In . SVG Version: 6.00 Build 0)  -->
<svg version="1.1" id="Ebene_1" xmlns="http://www.w3.org/2000/svg" xmlns:xlink="http://www.w3.org/1999/xlink" x="0px" y="0px"
	 viewBox="0 0 40 40" style="enable-background:new 0 0 40 40;" xml:space="preserve">
<style type="text/css">
	.st0{fill:#5F6368;}
</style>
<path class="st0" d="M15.4,40l-1-6.3c-0.6-0.2-1.3-0.5-2-1c-0.7-0.4-1.3-0.8-1.9-1.2l-5.9,2.7L0,26l5.4-4c-0.1-0.3-0.1-0.6-0.1-1
	c0-0.4,0-0.7,0-1s0-0.6,0-1c0-0.4,0.1-0.7,0.1-1L0,14l4.6-8.2l5.9,2.7c0.5-0.4,1.2-0.8,1.9-1.3c0.7-0.4,1.4-0.7,2-0.9l1-6.3h9.2
	l1,6.3c0.6,0.2,1.3,0.5,2,0.9C28.3,7.6,29,8,29.5,8.5l5.9-2.7L40,14l-5.4,3.9c0.1,0.3,0.1,0.7,0.1,1.1c0,0.4,0,0.7,0,1.1
	c0,0.3,0,0.7,0,1c0,0.4-0.1,0.7-0.1,1L40,26l-4.7,8.2l-5.9-2.7c-0.5,0.4-1.1,0.9-1.8,1.3c-0.7,0.4-1.4,0.7-2,0.9l-1,6.3H15.4z
	 M20,26.5c1.8,0,3.3-0.6,4.6-1.9s1.9-2.8,1.9-4.6s-0.6-3.3-1.9-4.6s-2.8-1.9-4.6-1.9s-3.3,0.6-4.6,1.9s-1.9,2.8-1.9,4.6
	s0.6,3.3,1.9,4.6S18.2,26.5,20,26.5z M20,23.5c-1,0-1.8-0.3-2.5-1c-0.7-0.7-1-1.5-1-2.5s0.3-1.8,1-2.5c0.7-0.7,1.5-1,2.5-1
	s1.8,0.3,2.5,1c0.7,0.7,1,1.5,1,2.5s-0.3,1.8-1,2.5C21.8,23.2,21,23.5,20,23.5z M17.8,37h4.4l0.7-5.6c1.1-0.3,2.1-0.7,3.1-1.2
	s1.9-1.2,2.7-2.1l5.3,2.3l2-3.6l-4.7-3.5c0.1-0.6,0.2-1.1,0.3-1.7s0.1-1.1,0.1-1.7s0-1.1-0.1-1.7s-0.2-1.1-0.3-1.7l4.7-3.4l-2-3.6
	l-5.3,2.3c-0.8-0.9-1.6-1.6-2.6-2.2s-2-1-3.2-1.1L22.2,3h-4.4l-0.7,5.6c-1.1,0.2-2.2,0.6-3.2,1.2c-1,0.6-1.9,1.3-2.6,2.1L6,9.6
	l-2,3.6l4.7,3.5c-0.1,0.6-0.2,1.1-0.3,1.7S8.2,19.4,8.2,20s0,1.1,0.1,1.7c0.1,0.6,0.2,1.1,0.3,1.7L4,26.8l2,3.6l5.3-2.3
	c0.8,0.8,1.7,1.5,2.7,2s2,1,3.1,1.3L17.8,37z"/>
</svg>
