<?xml version="1.0" encoding="utf-8"?>
<!-- Generator: Adobe Illustrator 27.1.1, SVG Export Plug-In . SVG Version: 6.00 Build 0)  -->
<svg version="1.1" id="Ebene_1" xmlns="http://www.w3.org/2000/svg" xmlns:xlink="http://www.w3.org/1999/xlink" x="0px" y="0px"
	 viewBox="0 0 962.3 464" style="enable-background:new 0 0 962.3 464;" xml:space="preserve">
<style type="text/css">
	.st0{fill:#0075BF;}
	.st1{fill:#47536B;}
</style>
<g>
	<path class="st0" d="M466.6,307.7c0-12.1,2.9-21.3,8.6-27.8c5.7-6.5,14.4-9.7,25.8-9.7c11.5,0,20.1,3.2,25.8,9.7
		c5.7,6.5,8.6,15.7,8.6,27.8v4.7h-22.1v-6.2c0-5.4-1-9.2-3.1-11.4c-2.1-2.2-4.9-3.3-8.6-3.3c-3.7,0-6.6,1.1-8.6,3.3
		c-2.1,2.2-3.1,6-3.1,11.4c0,5.1,1.1,9.6,3.4,13.5c2.3,3.9,5.1,7.6,8.5,11.1c3.4,3.5,7.1,7,11,10.4c3.9,3.5,7.6,7.3,11,11.4
		c3.4,4.1,6.2,8.8,8.5,14c2.3,5.2,3.4,11.4,3.4,18.5c0,12.1-2.9,21.3-8.8,27.8c-5.9,6.5-14.6,9.7-26.1,9.7
		c-11.5,0-20.2-3.2-26.1-9.7c-5.9-6.5-8.8-15.7-8.8-27.8v-9.1h22.1v10.6c0,5.4,1.1,9.1,3.3,11.3c2.2,2.1,5.1,3.2,8.8,3.2
		c3.7,0,6.6-1.1,8.8-3.2c2.2-2.1,3.3-5.9,3.3-11.3c0-5.1-1.1-9.6-3.4-13.5c-2.3-3.9-5.1-7.6-8.5-11.1c-3.4-3.5-7.1-6.9-11-10.4
		c-3.9-3.5-7.6-7.3-11-11.4c-3.4-4.1-6.2-8.8-8.5-14C467.8,320.9,466.6,314.7,466.6,307.7"/>
	<path class="st0" d="M546.2,307.7c0-12.1,2.9-21.3,8.6-27.8c5.7-6.5,14.4-9.7,25.8-9.7c11.5,0,20.1,3.2,25.8,9.7
		c5.7,6.5,8.6,15.7,8.6,27.8v4.7H593v-6.2c0-5.4-1-9.2-3.1-11.4c-2.1-2.2-4.9-3.3-8.6-3.3c-3.7,0-6.6,1.1-8.6,3.3
		c-2.1,2.2-3.1,6-3.1,11.4c0,5.1,1.1,9.6,3.4,13.5c2.3,3.9,5.1,7.6,8.5,11.1c3.4,3.5,7.1,7,11,10.4c3.9,3.5,7.6,7.3,11,11.4
		c3.4,4.1,6.2,8.8,8.5,14c2.3,5.2,3.4,11.4,3.4,18.5c0,12.1-2.9,21.3-8.8,27.8c-5.9,6.5-14.6,9.7-26.1,9.7
		c-11.5,0-20.2-3.2-26.1-9.7c-5.9-6.5-8.8-15.7-8.8-27.8v-9.1h22.1v10.6c0,5.4,1.1,9.1,3.3,11.3c2.2,2.1,5.1,3.2,8.8,3.2
		c3.7,0,6.6-1.1,8.8-3.2c2.2-2.1,3.3-5.9,3.3-11.3c0-5.1-1.1-9.6-3.4-13.5c-2.3-3.9-5.1-7.6-8.5-11.1c-3.4-3.5-7.1-6.9-11-10.4
		c-3.9-3.5-7.6-7.3-11-11.4c-3.4-4.1-6.2-8.8-8.5-14C547.3,320.9,546.2,314.7,546.2,307.7"/>
	<polygon class="st0" points="628.8,271.9 652.2,271.9 652.2,399.6 690.7,399.6 690.7,420.8 628.8,420.8 	"/>
	<path class="st1" d="M504.9,83.1c12.2,0,21,2.8,26.5,8.5c5.5,5.7,8.2,14.3,8.2,25.7v5.3c0,7.7-1.2,14-3.6,18.9
		c-2.4,5-6.2,8.7-11.5,11.1c6.4,2.4,10.9,6.3,13.5,11.8c2.6,5.5,3.9,12.2,3.9,20.1v12.1c0,11.5-3,20.2-8.9,26.3c-6,6-14.8,9-26.6,9
		h-36.8V83.1H504.9z M493,104.4v39.4h9.1c4.4,0,7.8-1.1,10.3-3.4c2.5-2.3,3.7-6.4,3.7-12.3v-8.3c0-5.4-1-9.3-2.9-11.7
		c-1.9-2.4-4.9-3.6-9-3.6H493z M493,165v45.7h13.4c4,0,7-1.1,9-3.2c2.1-2.1,3.1-6,3.1-11.5v-13c0-6.9-1.2-11.7-3.5-14.3
		c-2.3-2.6-6.2-3.8-11.6-3.8H493z"/>
	<polygon class="st1" points="579.4,145.9 611.5,145.9 611.5,167.1 579.4,167.1 579.4,210.7 619.8,210.7 619.8,232 556,232 
		556,83.1 619.8,83.1 619.8,104.4 579.4,104.4 	"/>
	<polygon class="st1" points="656.2,182.7 626.6,83.1 651.1,83.1 669,151 686.8,83.1 709.2,83.1 679.6,182.7 679.6,232 656.2,232 	
		"/>
	<path class="st1" d="M713.4,118.8c0-12.1,3-21.3,9.1-27.8c6.1-6.5,14.9-9.7,26.4-9.7c11.5,0,20.3,3.2,26.4,9.7
		c6.1,6.5,9.1,15.7,9.1,27.8v77.4c0,12.1-3.1,21.3-9.1,27.8c-6.1,6.5-14.9,9.7-26.4,9.7c-11.5,0-20.3-3.2-26.4-9.7
		c-6.1-6.5-9.1-15.7-9.1-27.8V118.8z M736.8,197.8c0,5.4,1.1,9.2,3.3,11.4c2.2,2.2,5.1,3.3,8.8,3.3c3.7,0,6.6-1.1,8.8-3.3
		c2.2-2.2,3.3-6,3.3-11.4v-80.4c0-5.4-1.1-9.2-3.3-11.4c-2.2-2.2-5.1-3.3-8.8-3.3c-3.7,0-6.6,1.1-8.8,3.3c-2.2,2.2-3.3,6-3.3,11.4
		V197.8z"/>
	<polygon class="st1" points="820.4,124.2 820.4,232 799.4,232 799.4,83.1 828.7,83.1 852.8,172.2 852.8,83.1 873.6,83.1 873.6,232 
		849.6,232 	"/>
	<path class="st1" d="M890.4,83.1h37c11.8,0,20.5,3.1,26.3,9.4c5.7,6.2,8.6,15.4,8.6,27.4v75.3c0,12.1-2.9,21.2-8.6,27.4
		c-5.7,6.2-14.5,9.4-26.3,9.4h-37V83.1z M913.8,104.4v106.4H927c3.7,0,6.6-1.1,8.7-3.2c2.1-2.1,3.2-5.9,3.2-11.3v-77.4
		c0-5.4-1.1-9.1-3.2-11.3c-2.1-2.1-5-3.2-8.7-3.2H913.8z"/>
	<path class="st0" d="M206.5,128.6c-26.8,0-48.6,24.6-48.6,54.8h97.3C255.1,153.2,233.3,128.6,206.5,128.6"/>
	<path class="st0" d="M206.5,0C206.5,0,87.3,74.5,0,78.8C2.1,176.7,53.2,402.3,206.5,464C359.7,402.3,410.8,176.7,413,78.8
		C325.7,74.5,206.5,0,206.5,0 M282,304.4H130.9c-6.3,0-11.4-5.1-11.4-11.4v-98.1c0-6.3,5.1-11.4,11.4-11.4h7
		c0-41.2,30.8-74.8,68.6-74.8s68.6,33.6,68.6,74.8h7c6.3,0,11.4,5.1,11.4,11.4V293C293.4,299.3,288.3,304.4,282,304.4"/>
</g>
</svg>
