<?xml version="1.0" standalone="no"?>
<!DOCTYPE svg PUBLIC "-//W3C//DTD SVG 20010904//EN"
 "http://www.w3.org/TR/2001/REC-SVG-20010904/DTD/svg10.dtd">
<svg version="1.0" xmlns="http://www.w3.org/2000/svg"
 width="700.000000pt" height="700.000000pt" viewBox="0 0 700.000000 700.000000"
 preserveAspectRatio="xMidYMid meet">
<metadata>
Created by potrace 1.14, written by Peter Selinger 2001-2017
</metadata>
<g transform="translate(0.000000,700.000000) scale(0.100000,-0.100000)"
fill="#000000" stroke="none">
<path d="M3330 6901 c-91 -54 -205 -119 -255 -146 -49 -26 -115 -62 -145 -78
-79 -42 -436 -221 -517 -258 -587 -270 -1049 -434 -1507 -535 -141 -32 -375
-65 -473 -67 -24 -1 -43 -6 -44 -12 -6 -58 10 -315 32 -515 14 -133 43 -353
54 -410 2 -14 9 -56 15 -93 9 -55 39 -220 76 -407 3 -14 21 -92 41 -175 19
-82 36 -157 38 -166 4 -18 55 -209 79 -294 57 -199 174 -562 212 -660 9 -22
22 -56 30 -75 44 -117 131 -335 156 -390 16 -36 44 -96 61 -135 107 -239 240
-487 430 -800 67 -110 339 -492 367 -515 3 -3 33 -39 67 -80 129 -157 318
-348 488 -496 77 -66 281 -224 291 -224 3 0 12 -6 19 -14 8 -7 56 -39 107 -71
51 -32 104 -65 118 -75 38 -25 297 -155 369 -184 l63 -25 62 25 c342 144 733
402 1025 679 71 68 219 217 251 255 12 14 38 43 59 65 88 95 341 424 341 444
0 5 4 11 9 13 7 3 34 42 170 253 14 22 31 49 37 60 6 11 28 49 49 85 135 227
325 616 435 890 12 30 26 64 31 75 77 183 163 430 255 735 60 195 157 560 170
635 2 17 7 38 10 47 9 29 76 357 89 433 36 212 69 449 81 575 2 19 6 51 8 70
3 19 9 76 12 125 3 50 8 106 9 125 3 40 7 162 6 200 -1 23 -5 26 -43 27 -65 3
-167 13 -228 23 -30 5 -71 12 -90 15 -86 14 -113 19 -250 52 -342 81 -788 233
-1125 383 -22 10 -94 42 -160 71 -225 100 -739 362 -955 487 -93 54 -204 119
-228 134 -15 9 -29 16 -32 16 -3 0 -79 -43 -170 -97z m367 -1562 c362 -79 649
-350 778 -733 14 -40 28 -91 31 -112 3 -22 8 -42 10 -45 4 -8 18 -156 17 -190
-1 -26 0 -26 75 -28 102 -2 149 -27 186 -99 14 -28 16 -114 16 -808 0 -757 -1
-779 -20 -819 -11 -23 -35 -52 -52 -66 l-33 -24 -1194 -3 -1194 -2 -41 24
c-23 13 -51 42 -64 64 l-22 40 0 778 c0 738 1 781 19 820 29 65 68 86 169 93
l86 6 2 35 c10 137 17 188 44 287 111 411 456 735 840 790 19 3 37 7 39 9 11
11 237 -2 308 -17z"/>
<path d="M3361 5044 c-314 -67 -561 -375 -590 -731 l-7 -83 733 0 c688 0 733
1 734 18 3 43 -6 125 -16 162 -2 8 -7 30 -10 48 -7 39 -56 165 -85 216 -107
192 -271 317 -490 373 -44 12 -212 10 -269 -3z"/>
</g>
</svg>
